<svg xmlns="http://www.w3.org/2000/svg" viewBox="0 0 1200 420" width="1200" height="420" role="img" aria-label="LANGUAGES: TypeScript, Python, Rust, Kotlin, Java, C++. FRONTEND: React 19, Next.js 15, Tailwind, three.js, Vite. BACKEND: Node.js, Express, FastAPI, SQLAlchemy, Celery. MOBILE &amp; DESKTOP: Android, Compose, Tauri v2. DATA &amp; INFRASTRUCTURE: PostgreSQL, MongoDB, Redis, Firebase, Docker, Actions, Vercel. RUNTIME &amp; TESTING: ONNX Runtime, Vitest, pytest, Git">
  <title>Stack — 30 technologies, each one in a linked repository</title>
  <style>
    @keyframes settle { from { opacity: 0; transform: translateY(9px); } }
    @keyframes edge   { 0%,100% { stroke-opacity: .10 } 50% { stroke-opacity: .26 } }

    /* Base state is the finished one; the delay only staggers it. */
    .tile { opacity: 1; transform-box: fill-box; transform-origin: center;
            animation: settle .5s cubic-bezier(.16,1,.3,1) backwards; }
    /* A slow wave across the grid rather than thirty things blinking:
       the delay is the tile's index, so the highlight travels. */
    .pad  { animation: edge 6s ease-in-out infinite; }

    @media (prefers-reduced-motion: reduce) {
      .tile, .pad { animation: none !important; }
    }
  </style>

  <rect width="1200" height="420" fill="#0B0E0F"/>
  <rect width="1200" height="1.5" fill="#FF6B33"/>

  <text x="44" y="32" fill="#A3ADAC" font-family="'Helvetica Neue', Helvetica, Arial, sans-serif" font-size="10" font-weight="700" letter-spacing="2.4">STACK</text>
  <text x="1156" y="32" fill="#879191" font-family="ui-monospace, 'SF Mono', SFMono-Regular, Menlo, Consolas, monospace" font-size="10" text-anchor="end">every mark below is in one of the seven repositories</text>
  <line x1="44" y1="46" x2="1156" y2="46" stroke="rgba(232,235,232,0.10)" stroke-width="1"/>

  <text x="44" y="88" fill="#A3ADAC" font-family="'Helvetica Neue', Helvetica, Arial, sans-serif" font-size="8.5" font-weight="700" letter-spacing="1.8">LANGUAGES</text>
  <g class="tile" style="animation-delay:0.05s">
      <rect class="pad" style="animation-delay:0s" x="44" y="104" width="52" height="52" rx="12" fill="#12161A" stroke="#E8EBE8" stroke-opacity=".10"/>
      <g transform="translate(57 117) scale(1.0833)" fill="#3178C6"><path d="M1.125 0C.502 0 0 .502 0 1.125v21.75C0 23.498.502 24 1.125 24h21.75c.623 0 1.125-.502 1.125-1.125V1.125C24 .502 23.498 0 22.875 0zm17.363 9.75c.612 0 1.154.037 1.627.111a6.38 6.38 0 0 1 1.306.34v2.458a3.95 3.95 0 0 0-.643-.361 5.093 5.093 0 0 0-.717-.26 5.453 5.453 0 0 0-1.426-.2c-.3 0-.573.028-.819.086a2.1 2.1 0 0 0-.623.242c-.17.104-.3.229-.393.374a.888.888 0 0 0-.14.49c0 .196.053.373.156.529.104.156.252.304.443.444s.423.276.696.41c.273.135.582.274.926.416.47.197.892.407 1.266.628.374.222.695.473.963.753.268.279.472.598.614.957.142.359.214.776.214 1.253 0 .657-.125 1.21-.373 1.656a3.033 3.033 0 0 1-1.012 1.085 4.38 4.38 0 0 1-1.487.596c-.566.12-1.163.18-1.79.18a9.916 9.916 0 0 1-1.84-.164 5.544 5.544 0 0 1-1.512-.493v-2.63a5.033 5.033 0 0 0 3.237 1.2c.333 0 .624-.03.872-.09.249-.06.456-.144.623-.25.166-.108.29-.234.373-.38a1.023 1.023 0 0 0-.074-1.089 2.12 2.12 0 0 0-.537-.5 5.597 5.597 0 0 0-.807-.444 27.72 27.72 0 0 0-1.007-.436c-.918-.383-1.602-.852-2.053-1.405-.45-.553-.676-1.222-.676-2.005 0-.614.123-1.141.369-1.582.246-.441.58-.804 1.004-1.089a4.494 4.494 0 0 1 1.47-.629 7.536 7.536 0 0 1 1.77-.201zm-15.113.188h9.563v2.166H9.506v9.646H6.789v-9.646H3.375z"/></g>
      <text x="70" y="169" fill="#879191" font-family="ui-monospace, 'SF Mono', SFMono-Regular, Menlo, Consolas, monospace" font-size="8.5" text-anchor="middle">TypeScript</text>
    </g>
  <g class="tile" style="animation-delay:0.08s">
      <rect class="pad" style="animation-delay:0.11s" x="108" y="104" width="52" height="52" rx="12" fill="#12161A" stroke="#E8EBE8" stroke-opacity=".10"/>
      <g transform="translate(121 117) scale(1.0833)" fill="#3776AB"><path d="M14.25.18l.9.2.73.26.59.3.45.32.34.34.25.34.16.33.1.3.04.26.02.2-.01.13V8.5l-.05.63-.13.55-.21.46-.26.38-.3.31-.33.25-.35.19-.35.14-.33.1-.3.07-.26.04-.21.02H8.77l-.69.05-.59.14-.5.22-.41.27-.33.32-.27.35-.2.36-.15.37-.1.35-.07.32-.04.27-.02.21v3.06H3.17l-.21-.03-.28-.07-.32-.12-.35-.18-.36-.26-.36-.36-.35-.46-.32-.59-.28-.73-.21-.88-.14-1.05-.05-1.23.06-1.22.16-1.04.24-.87.32-.71.36-.57.4-.44.42-.33.42-.24.4-.16.36-.1.32-.05.24-.01h.16l.06.01h8.16v-.83H6.18l-.01-2.75-.02-.37.05-.34.11-.31.17-.28.25-.26.31-.23.38-.2.44-.18.51-.15.58-.12.64-.1.71-.06.77-.04.84-.02 1.27.05zm-6.3 1.98l-.23.33-.08.41.08.41.23.34.33.22.41.09.41-.09.33-.22.23-.34.08-.41-.08-.41-.23-.33-.33-.22-.41-.09-.41.09zm13.09 3.95l.28.06.32.12.35.18.36.27.36.35.35.47.32.59.28.73.21.88.14 1.04.05 1.23-.06 1.23-.16 1.04-.24.86-.32.71-.36.57-.4.45-.42.33-.42.24-.4.16-.36.09-.32.05-.24.02-.16-.01h-8.22v.82h5.84l.01 2.76.02.36-.05.34-.11.31-.17.29-.25.25-.31.24-.38.2-.44.17-.51.15-.58.13-.64.09-.71.07-.77.04-.84.01-1.27-.04-1.07-.14-.9-.2-.73-.25-.59-.3-.45-.33-.34-.34-.25-.34-.16-.33-.1-.3-.04-.25-.02-.2.01-.13v-5.34l.05-.64.13-.54.21-.46.26-.38.3-.32.33-.24.35-.2.35-.14.33-.1.3-.06.26-.04.21-.02.13-.01h5.84l.69-.05.59-.14.5-.21.41-.28.33-.32.27-.35.2-.36.15-.36.1-.35.07-.32.04-.28.02-.21V6.07h2.09l.14.01zm-6.47 14.25l-.23.33-.08.41.08.41.23.33.33.23.41.08.41-.08.33-.23.23-.33.08-.41-.08-.41-.23-.33-.33-.23-.41-.08-.41.08z"/></g>
      <text x="134" y="169" fill="#879191" font-family="ui-monospace, 'SF Mono', SFMono-Regular, Menlo, Consolas, monospace" font-size="8.5" text-anchor="middle">Python</text>
    </g>
  <g class="tile" style="animation-delay:0.11s">
      <rect class="pad" style="animation-delay:0.22s" x="172" y="104" width="52" height="52" rx="12" fill="#12161A" stroke="#E8EBE8" stroke-opacity=".10"/>
      <g transform="translate(185 117) scale(1.0833)" fill="#E8EBE8"><path d="M23.8346 11.7033l-1.0073-.6236a13.7268 13.7268 0 00-.0283-.2936l.8656-.8069a.3483.3483 0 00-.1154-.578l-1.1066-.414a8.4958 8.4958 0 00-.087-.2856l.6904-.9587a.3462.3462 0 00-.2257-.5446l-1.1663-.1894a9.3574 9.3574 0 00-.1407-.2622l.49-1.0761a.3437.3437 0 00-.0274-.3361.3486.3486 0 00-.3006-.154l-1.1845.0416a6.7444 6.7444 0 00-.1873-.2268l.2723-1.153a.3472.3472 0 00-.417-.4172l-1.1532.2724a14.0183 14.0183 0 00-.2278-.1873l.0415-1.1845a.3442.3442 0 00-.49-.328l-1.076.491c-.0872-.0476-.1742-.0952-.2623-.1407l-.1903-1.1673A.3483.3483 0 0016.256.955l-.9597.6905a8.4867 8.4867 0 00-.2855-.086l-.414-1.1066a.3483.3483 0 00-.5781-.1154l-.8069.8666a9.2936 9.2936 0 00-.2936-.0284L12.2946.1683a.3462.3462 0 00-.5892 0l-.6236 1.0073a13.7383 13.7383 0 00-.2936.0284L9.9803.3374a.3462.3462 0 00-.578.1154l-.4141 1.1065c-.0962.0274-.1903.0567-.2855.086L7.744.955a.3483.3483 0 00-.5447.2258L7.009 2.348a9.3574 9.3574 0 00-.2622.1407l-1.0762-.491a.3462.3462 0 00-.49.328l.0416 1.1845a7.9826 7.9826 0 00-.2278.1873L3.8413 3.425a.3472.3472 0 00-.4171.4171l.2713 1.1531c-.0628.075-.1255.1509-.1863.2268l-1.1845-.0415a.3462.3462 0 00-.328.49l.491 1.0761a9.167 9.167 0 00-.1407.2622l-1.1662.1894a.3483.3483 0 00-.2258.5446l.6904.9587a13.303 13.303 0 00-.087.2855l-1.1065.414a.3483.3483 0 00-.1155.5781l.8656.807a9.2936 9.2936 0 00-.0283.2935l-1.0073.6236a.3442.3442 0 000 .5892l1.0073.6236c.008.0982.0182.1964.0283.2936l-.8656.8079a.3462.3462 0 00.1155.578l1.1065.4141c.0273.0962.0567.1914.087.2855l-.6904.9587a.3452.3452 0 00.2268.5447l1.1662.1893c.0456.088.0922.1751.1408.2622l-.491 1.0762a.3462.3462 0 00.328.49l1.1834-.0415c.0618.0769.1235.1528.1873.2277l-.2713 1.1541a.3462.3462 0 00.4171.4161l1.153-.2713c.075.0638.151.1255.2279.1863l-.0415 1.1845a.3442.3442 0 00.49.327l1.0761-.49c.087.0486.1741.0951.2622.1407l.1903 1.1662a.3483.3483 0 00.5447.2268l.9587-.6904a9.299 9.299 0 00.2855.087l.414 1.1066a.3452.3452 0 00.5781.1154l.8079-.8656c.0972.0111.1954.0203.2936.0294l.6236 1.0073a.3472.3472 0 00.5892 0l.6236-1.0073c.0982-.0091.1964-.0183.2936-.0294l.8069.8656a.3483.3483 0 00.578-.1154l.4141-1.1066a8.4626 8.4626 0 00.2855-.087l.9587.6904a.3452.3452 0 00.5447-.2268l.1903-1.1662c.088-.0456.1751-.0931.2622-.1407l1.0762.49a.3472.3472 0 00.49-.327l-.0415-1.1845a6.7267 6.7267 0 00.2267-.1863l1.1531.2713a.3472.3472 0 00.4171-.416l-.2713-1.1542c.0628-.0749.1255-.1508.1863-.2278l1.1845.0415a.3442.3442 0 00.328-.49l-.49-1.076c.0475-.0872.0951-.1742.1407-.2623l1.1662-.1893a.3483.3483 0 00.2258-.5447l-.6904-.9587.087-.2855 1.1066-.414a.3462.3462 0 00.1154-.5781l-.8656-.8079c.0101-.0972.0202-.1954.0283-.2936l1.0073-.6236a.3442.3442 0 000-.5892zm-6.7413 8.3551a.7138.7138 0 01.2986-1.396.714.714 0 11-.2997 1.396zm-.3422-2.3142a.649.649 0 00-.7715.5l-.3573 1.6685c-1.1035.501-2.3285.7795-3.6193.7795a8.7368 8.7368 0 01-3.6951-.814l-.3574-1.6684a.648.648 0 00-.7714-.499l-1.473.3158a8.7216 8.7216 0 01-.7613-.898h7.1676c.081 0 .1356-.0141.1356-.088v-2.536c0-.074-.0536-.0881-.1356-.0881h-2.0966v-1.6077h2.2677c.2065 0 1.1065.0587 1.394 1.2088.0901.3533.2875 1.5044.4232 1.8729.1346.413.6833 1.2381 1.2685 1.2381h3.5716a.7492.7492 0 00.1296-.0131 8.7874 8.7874 0 01-.8119.9526zM6.8369 20.024a.714.714 0 11-.2997-1.396.714.714 0 01.2997 1.396zM4.1177 8.9972a.7137.7137 0 11-1.304.5791.7137.7137 0 011.304-.579zm-.8352 1.9813l1.5347-.6824a.65.65 0 00.33-.8585l-.3158-.7147h1.2432v5.6025H3.5669a8.7753 8.7753 0 01-.2834-3.348zm6.7343-.5437V8.7836h2.9601c.153 0 1.0792.1772 1.0792.8697 0 .575-.7107.7815-1.2948.7815zm10.7574 1.4862c0 .2187-.008.4363-.0243.651h-.9c-.09 0-.1265.0586-.1265.1477v.413c0 .973-.5487 1.1846-1.0296 1.2382-.4576.0517-.9648-.1913-1.0275-.4717-.2704-1.5186-.7198-1.8436-1.4305-2.4034.8817-.5599 1.799-1.386 1.799-2.4915 0-1.1936-.819-1.9458-1.3769-2.3153-.7825-.5163-1.6491-.6195-1.883-.6195H5.4682a8.7651 8.7651 0 014.907-2.7699l1.0974 1.151a.648.648 0 00.9182.0213l1.227-1.1743a8.7753 8.7753 0 016.0044 4.2762l-.8403 1.8982a.652.652 0 00.33.8585l1.6178.7188c.0283.2875.0425.577.0425.8717zm-9.3006-9.5993a.7128.7128 0 11.984 1.0316.7137.7137 0 01-.984-1.0316zm8.3389 6.71a.7107.7107 0 01.9395-.3625.7137.7137 0 11-.9405.3635z"/></g>
      <text x="198" y="169" fill="#879191" font-family="ui-monospace, 'SF Mono', SFMono-Regular, Menlo, Consolas, monospace" font-size="8.5" text-anchor="middle">Rust</text>
    </g>
  <g class="tile" style="animation-delay:0.14s">
      <rect class="pad" style="animation-delay:0.33s" x="236" y="104" width="52" height="52" rx="12" fill="#12161A" stroke="#E8EBE8" stroke-opacity=".10"/>
      <g transform="translate(249 117) scale(1.0833)" fill="#7F52FF"><path d="M24 24H0V0h24L12 12Z"/></g>
      <text x="262" y="169" fill="#879191" font-family="ui-monospace, 'SF Mono', SFMono-Regular, Menlo, Consolas, monospace" font-size="8.5" text-anchor="middle">Kotlin</text>
    </g>
  <g class="tile" style="animation-delay:0.17s">
      <rect class="pad" style="animation-delay:0.44s" x="300" y="104" width="52" height="52" rx="12" fill="#12161A" stroke="#E8EBE8" stroke-opacity=".10"/>
      <g transform="translate(313 117) scale(1.0833)" fill="#E8EBE8"><path d="M11.915 0 11.7.215C9.515 2.4 7.47 6.39 6.046 10.483c-1.064 1.024-3.633 2.81-3.711 3.551-.093.87 1.746 2.611 1.55 3.235-.198.625-1.304 1.408-1.014 1.939.1.188.823.011 1.277-.491a13.389 13.389 0 0 0-.017 2.14c.076.906.27 1.668.643 2.232.372.563.956.911 1.667.911.397 0 .727-.114 1.024-.264.298-.149.571-.33.91-.5.68-.34 1.634-.666 3.53-.604 1.903.062 2.872.39 3.559.704.687.314 1.15.664 1.925.664.767 0 1.395-.336 1.807-.9.412-.563.631-1.33.72-2.24.06-.623.055-1.32 0-2.066.454.45 1.117.604 1.213.424.29-.53-.816-1.314-1.013-1.937-.198-.624 1.642-2.366 1.549-3.236-.08-.748-2.707-2.568-3.748-3.586C16.428 6.374 14.308 2.394 12.13.215zm.175 6.038a2.95 2.95 0 0 1 2.943 2.942 2.95 2.95 0 0 1-2.943 2.943A2.95 2.95 0 0 1 9.148 8.98a2.95 2.95 0 0 1 2.942-2.942zM8.685 7.983a3.515 3.515 0 0 0-.145.997c0 1.951 1.6 3.55 3.55 3.55 1.95 0 3.55-1.598 3.55-3.55 0-.329-.046-.648-.132-.951.334.095.64.208.915.336a42.699 42.699 0 0 1 2.042 5.829c.678 2.545 1.01 4.92.846 6.607-.082.844-.29 1.51-.606 1.94-.315.431-.713.651-1.315.651-.593 0-.932-.27-1.673-.61-.741-.338-1.825-.694-3.792-.758-1.974-.064-3.073.293-3.821.669-.375.188-.659.373-.911.5s-.466.2-.752.2c-.53 0-.876-.209-1.16-.64-.285-.43-.474-1.101-.545-1.948-.141-1.693.176-4.069.823-6.614a43.155 43.155 0 0 1 1.934-5.783c.348-.167.749-.31 1.192-.425zm-3.382 4.362a.216.216 0 0 1 .13.031c-.166.56-.323 1.116-.463 1.665a33.849 33.849 0 0 0-.547 2.555 3.9 3.9 0 0 0-.2-.39c-.58-1.012-.914-1.642-1.16-2.08.315-.24 1.679-1.755 2.24-1.781zm13.394.01c.562.027 1.926 1.543 2.24 1.783-.246.438-.58 1.068-1.16 2.08a4.428 4.428 0 0 0-.163.309 32.354 32.354 0 0 0-.562-2.49 40.579 40.579 0 0 0-.482-1.652.216.216 0 0 1 .127-.03z"/></g>
      <text x="326" y="169" fill="#879191" font-family="ui-monospace, 'SF Mono', SFMono-Regular, Menlo, Consolas, monospace" font-size="8.5" text-anchor="middle">Java</text>
    </g>
  <g class="tile" style="animation-delay:0.2s">
      <rect class="pad" style="animation-delay:0.55s" x="364" y="104" width="52" height="52" rx="12" fill="#12161A" stroke="#E8EBE8" stroke-opacity=".10"/>
      <g transform="translate(377 117) scale(1.0833)" fill="#0065b0"><path d="M22.394 6c-.167-.29-.398-.543-.652-.69L12.926.22c-.509-.294-1.34-.294-1.848 0L2.26 5.31c-.508.293-.923 1.013-.923 1.6v10.18c0 .294.104.62.271.91.167.29.398.543.652.69l8.816 5.09c.508.293 1.34.293 1.848 0l8.816-5.09c.254-.147.485-.4.652-.69.167-.29.27-.616.27-.91V6.91c.003-.294-.1-.62-.268-.91zM12 19.11c-3.92 0-7.109-3.19-7.109-7.11 0-3.92 3.19-7.11 7.11-7.11a7.133 7.133 0 016.156 3.553l-3.076 1.78a3.567 3.567 0 00-3.08-1.78A3.56 3.56 0 008.444 12 3.56 3.56 0 0012 15.555a3.57 3.57 0 003.08-1.778l3.078 1.78A7.135 7.135 0 0112 19.11zm7.11-6.715h-.79v.79h-.79v-.79h-.79v-.79h.79v-.79h.79v.79h.79zm2.962 0h-.79v.79h-.79v-.79h-.79v-.79h.79v-.79h.79v.79h.79z"/></g>
      <text x="390" y="169" fill="#879191" font-family="ui-monospace, 'SF Mono', SFMono-Regular, Menlo, Consolas, monospace" font-size="8.5" text-anchor="middle">C++</text>
    </g>
  <text x="624" y="88" fill="#A3ADAC" font-family="'Helvetica Neue', Helvetica, Arial, sans-serif" font-size="8.5" font-weight="700" letter-spacing="1.8">FRONTEND</text>
  <g class="tile" style="animation-delay:0.23s">
      <rect class="pad" style="animation-delay:0.66s" x="624" y="104" width="52" height="52" rx="12" fill="#12161A" stroke="#E8EBE8" stroke-opacity=".10"/>
      <g transform="translate(637 117) scale(1.0833)" fill="#61DAFB"><path d="M14.23 12.004a2.236 2.236 0 0 1-2.235 2.236 2.236 2.236 0 0 1-2.236-2.236 2.236 2.236 0 0 1 2.235-2.236 2.236 2.236 0 0 1 2.236 2.236zm2.648-10.69c-1.346 0-3.107.96-4.888 2.622-1.78-1.653-3.542-2.602-4.887-2.602-.41 0-.783.093-1.106.278-1.375.793-1.683 3.264-.973 6.365C1.98 8.917 0 10.42 0 12.004c0 1.59 1.99 3.097 5.043 4.03-.704 3.113-.39 5.588.988 6.38.32.187.69.275 1.102.275 1.345 0 3.107-.96 4.888-2.624 1.78 1.654 3.542 2.603 4.887 2.603.41 0 .783-.09 1.106-.275 1.374-.792 1.683-3.263.973-6.365C22.02 15.096 24 13.59 24 12.004c0-1.59-1.99-3.097-5.043-4.032.704-3.11.39-5.587-.988-6.38-.318-.184-.688-.277-1.092-.278zm-.005 1.09v.006c.225 0 .406.044.558.127.666.382.955 1.835.73 3.704-.054.46-.142.945-.25 1.44-.96-.236-2.006-.417-3.107-.534-.66-.905-1.345-1.727-2.035-2.447 1.592-1.48 3.087-2.292 4.105-2.295zm-9.77.02c1.012 0 2.514.808 4.11 2.28-.686.72-1.37 1.537-2.02 2.442-1.107.117-2.154.298-3.113.538-.112-.49-.195-.964-.254-1.42-.23-1.868.054-3.32.714-3.707.19-.09.4-.127.563-.132zm4.882 3.05c.455.468.91.992 1.36 1.564-.44-.02-.89-.034-1.345-.034-.46 0-.915.01-1.36.034.44-.572.895-1.096 1.345-1.565zM12 8.1c.74 0 1.477.034 2.202.093.406.582.802 1.203 1.183 1.86.372.64.71 1.29 1.018 1.946-.308.655-.646 1.31-1.013 1.95-.38.66-.773 1.288-1.18 1.87-.728.063-1.466.098-2.21.098-.74 0-1.477-.035-2.202-.093-.406-.582-.802-1.204-1.183-1.86-.372-.64-.71-1.29-1.018-1.946.303-.657.646-1.313 1.013-1.954.38-.66.773-1.286 1.18-1.868.728-.064 1.466-.098 2.21-.098zm-3.635.254c-.24.377-.48.763-.704 1.16-.225.39-.435.782-.635 1.174-.265-.656-.49-1.31-.676-1.947.64-.15 1.315-.283 2.015-.386zm7.26 0c.695.103 1.365.23 2.006.387-.18.632-.405 1.282-.66 1.933-.2-.39-.41-.783-.64-1.174-.225-.392-.465-.774-.705-1.146zm3.063.675c.484.15.944.317 1.375.498 1.732.74 2.852 1.708 2.852 2.476-.005.768-1.125 1.74-2.857 2.475-.42.18-.88.342-1.355.493-.28-.958-.646-1.956-1.1-2.98.45-1.017.81-2.01 1.085-2.964zm-13.395.004c.278.96.645 1.957 1.1 2.98-.45 1.017-.812 2.01-1.086 2.964-.484-.15-.944-.318-1.37-.5-1.732-.737-2.852-1.706-2.852-2.474 0-.768 1.12-1.742 2.852-2.476.42-.18.88-.342 1.356-.494zm11.678 4.28c.265.657.49 1.312.676 1.948-.64.157-1.316.29-2.016.39.24-.375.48-.762.705-1.158.225-.39.435-.788.636-1.18zm-9.945.02c.2.392.41.783.64 1.175.23.39.465.772.705 1.143-.695-.102-1.365-.23-2.006-.386.18-.63.406-1.282.66-1.933zM17.92 16.32c.112.493.2.968.254 1.423.23 1.868-.054 3.32-.714 3.708-.147.09-.338.128-.563.128-1.012 0-2.514-.807-4.11-2.28.686-.72 1.37-1.536 2.02-2.44 1.107-.118 2.154-.3 3.113-.54zm-11.83.01c.96.234 2.006.415 3.107.532.66.905 1.345 1.727 2.035 2.446-1.595 1.483-3.092 2.295-4.11 2.295-.22-.005-.406-.05-.553-.132-.666-.38-.955-1.834-.73-3.703.054-.46.142-.944.25-1.438zm4.56.64c.44.02.89.034 1.345.034.46 0 .915-.01 1.36-.034-.44.572-.895 1.095-1.345 1.565-.455-.47-.91-.993-1.36-1.565z"/></g>
      <text x="650" y="169" fill="#879191" font-family="ui-monospace, 'SF Mono', SFMono-Regular, Menlo, Consolas, monospace" font-size="8.5" text-anchor="middle">React 19</text>
    </g>
  <g class="tile" style="animation-delay:0.26s">
      <rect class="pad" style="animation-delay:0.77s" x="688" y="104" width="52" height="52" rx="12" fill="#12161A" stroke="#E8EBE8" stroke-opacity=".10"/>
      <g transform="translate(701 117) scale(1.0833)" fill="#E8EBE8"><path d="M18.665 21.978C16.758 23.255 14.465 24 12 24 5.377 24 0 18.623 0 12S5.377 0 12 0s12 5.377 12 12c0 3.583-1.574 6.801-4.067 9.001L9.219 7.2H7.2v9.596h1.615V9.251l9.85 12.727Zm-3.332-8.533 1.6 2.061V7.2h-1.6v6.245Z"/></g>
      <text x="714" y="169" fill="#879191" font-family="ui-monospace, 'SF Mono', SFMono-Regular, Menlo, Consolas, monospace" font-size="8.5" text-anchor="middle">Next.js 15</text>
    </g>
  <g class="tile" style="animation-delay:0.29s">
      <rect class="pad" style="animation-delay:0.88s" x="752" y="104" width="52" height="52" rx="12" fill="#12161A" stroke="#E8EBE8" stroke-opacity=".10"/>
      <g transform="translate(765 117) scale(1.0833)" fill="#06B6D4"><path d="M12.001,4.8c-3.2,0-5.2,1.6-6,4.8c1.2-1.6,2.6-2.2,4.2-1.8c0.913,0.228,1.565,0.89,2.288,1.624 C13.666,10.618,15.027,12,18.001,12c3.2,0,5.2-1.6,6-4.8c-1.2,1.6-2.6,2.2-4.2,1.8c-0.913-0.228-1.565-0.89-2.288-1.624 C16.337,6.182,14.976,4.8,12.001,4.8z M6.001,12c-3.2,0-5.2,1.6-6,4.8c1.2-1.6,2.6-2.2,4.2-1.8c0.913,0.228,1.565,0.89,2.288,1.624 c1.177,1.194,2.538,2.576,5.512,2.576c3.2,0,5.2-1.6,6-4.8c-1.2,1.6-2.6,2.2-4.2,1.8c-0.913-0.228-1.565-0.89-2.288-1.624 C10.337,13.382,8.976,12,6.001,12z"/></g>
      <text x="778" y="169" fill="#879191" font-family="ui-monospace, 'SF Mono', SFMono-Regular, Menlo, Consolas, monospace" font-size="8.5" text-anchor="middle">Tailwind</text>
    </g>
  <g class="tile" style="animation-delay:0.32s">
      <rect class="pad" style="animation-delay:0.99s" x="816" y="104" width="52" height="52" rx="12" fill="#12161A" stroke="#E8EBE8" stroke-opacity=".10"/>
      <g transform="translate(829 117) scale(1.0833)" fill="#E8EBE8"><path d="M.38 0a.268.268 0 0 0-.256.332l2.894 11.716a.268.268 0 0 0 .01.04l2.89 11.708a.268.268 0 0 0 .447.128L23.802 7.15a.268.268 0 0 0-.112-.45l-5.784-1.667a.268.268 0 0 0-.123-.035L6.38 1.715a.268.268 0 0 0-.144-.04L.456.01A.268.268 0 0 0 .38 0zm.374.654L5.71 2.08 1.99 5.664zM6.61 2.34l4.864 1.4-3.65 3.515zm-.522.12l1.217 4.926-4.877-1.4zm6.28 1.538l4.878 1.404-3.662 3.53zm-.52.13l1.208 4.9-4.853-1.392zm6.3 1.534l4.947 1.424-3.715 3.574zm-.524.12l1.215 4.926-4.876-1.398zm-15.432.696l4.964 1.424-3.726 3.586zM8.047 8.15l4.877 1.4-3.66 3.527zm-.518.137l1.236 5.017-4.963-1.432zm6.274 1.535l4.965 1.425-3.73 3.586zm-.52.127l1.235 5.012-4.958-1.43zm-9.63 2.438l4.873 1.406-3.656 3.523zm5.854 1.687l4.863 1.403-3.648 3.51zm-.54.04l1.214 4.927-4.875-1.4zm-3.896 4.02l5.037 1.442-3.782 3.638z"/></g>
      <text x="842" y="169" fill="#879191" font-family="ui-monospace, 'SF Mono', SFMono-Regular, Menlo, Consolas, monospace" font-size="8.5" text-anchor="middle">three.js</text>
    </g>
  <g class="tile" style="animation-delay:0.35s">
      <rect class="pad" style="animation-delay:1.1s" x="880" y="104" width="52" height="52" rx="12" fill="#12161A" stroke="#E8EBE8" stroke-opacity=".10"/>
      <g transform="translate(893 117) scale(1.0833)" fill="#9135FF"><path d="M13.056 23.238a.57.57 0 0 1-1.02-.355v-5.202c0-.63-.512-1.143-1.144-1.143H5.148a.57.57 0 0 1-.464-.903l3.777-5.29c.54-.753 0-1.804-.93-1.804H.57a.574.574 0 0 1-.543-.746.6.6 0 0 1 .08-.157L5.008.78a.57.57 0 0 1 .467-.24h14.589a.57.57 0 0 1 .466.903l-3.778 5.29c-.54.755 0 1.806.93 1.806h5.745c.238 0 .424.138.513.322a.56.56 0 0 1-.063.603z"/></g>
      <text x="906" y="169" fill="#879191" font-family="ui-monospace, 'SF Mono', SFMono-Regular, Menlo, Consolas, monospace" font-size="8.5" text-anchor="middle">Vite</text>
    </g>
  <text x="44" y="198" fill="#A3ADAC" font-family="'Helvetica Neue', Helvetica, Arial, sans-serif" font-size="8.5" font-weight="700" letter-spacing="1.8">BACKEND</text>
  <g class="tile" style="animation-delay:0.38s">
      <rect class="pad" style="animation-delay:1.21s" x="44" y="214" width="52" height="52" rx="12" fill="#12161A" stroke="#E8EBE8" stroke-opacity=".10"/>
      <g transform="translate(57 227) scale(1.0833)" fill="#5FA04E"><path d="M11.998,24c-0.321,0-0.641-0.084-0.922-0.247l-2.936-1.737c-0.438-0.245-0.224-0.332-0.08-0.383 c0.585-0.203,0.703-0.25,1.328-0.604c0.065-0.037,0.151-0.023,0.218,0.017l2.256,1.339c0.082,0.045,0.197,0.045,0.272,0l8.795-5.076 c0.082-0.047,0.134-0.141,0.134-0.238V6.921c0-0.099-0.053-0.192-0.137-0.242l-8.791-5.072c-0.081-0.047-0.189-0.047-0.271,0 L3.075,6.68C2.99,6.729,2.936,6.825,2.936,6.921v10.15c0,0.097,0.054,0.189,0.139,0.235l2.409,1.392 c1.307,0.654,2.108-0.116,2.108-0.89V7.787c0-0.142,0.114-0.253,0.256-0.253h1.115c0.139,0,0.255,0.112,0.255,0.253v10.021 c0,1.745-0.95,2.745-2.604,2.745c-0.508,0-0.909,0-2.026-0.551L2.28,18.675c-0.57-0.329-0.922-0.945-0.922-1.604V6.921 c0-0.659,0.353-1.275,0.922-1.603l8.795-5.082c0.557-0.315,1.296-0.315,1.848,0l8.794,5.082c0.57,0.329,0.924,0.944,0.924,1.603 v10.15c0,0.659-0.354,1.273-0.924,1.604l-8.794,5.078C12.643,23.916,12.324,24,11.998,24z M19.099,13.993 c0-1.9-1.284-2.406-3.987-2.763c-2.731-0.361-3.009-0.548-3.009-1.187c0-0.528,0.235-1.233,2.258-1.233 c1.807,0,2.473,0.389,2.747,1.607c0.024,0.115,0.129,0.199,0.247,0.199h1.141c0.071,0,0.138-0.031,0.186-0.081 c0.048-0.054,0.074-0.123,0.067-0.196c-0.177-2.098-1.571-3.076-4.388-3.076c-2.508,0-4.004,1.058-4.004,2.833 c0,1.925,1.488,2.457,3.895,2.695c2.88,0.282,3.103,0.703,3.103,1.269c0,0.983-0.789,1.402-2.642,1.402 c-2.327,0-2.839-0.584-3.011-1.742c-0.02-0.124-0.126-0.215-0.253-0.215h-1.137c-0.141,0-0.254,0.112-0.254,0.253 c0,1.482,0.806,3.248,4.655,3.248C17.501,17.007,19.099,15.91,19.099,13.993z"/></g>
      <text x="70" y="279" fill="#879191" font-family="ui-monospace, 'SF Mono', SFMono-Regular, Menlo, Consolas, monospace" font-size="8.5" text-anchor="middle">Node.js</text>
    </g>
  <g class="tile" style="animation-delay:0.41s">
      <rect class="pad" style="animation-delay:1.32s" x="108" y="214" width="52" height="52" rx="12" fill="#12161A" stroke="#E8EBE8" stroke-opacity=".10"/>
      <g transform="translate(121 227) scale(1.0833)" fill="#E8EBE8"><path d="M12.262 16.666h1.146l6.975-9.325H19.22zm9.778 1.441v.004l-4.334-5.706-.557.74 4.873 6.682H.945V4.173h9.505l5.026 6.7.574-.772-4.374-5.928h.003l-.719-.945H0v17.544h24zM10.917 8.705a3.8 3.8 0 0 0-1.292-1.183q-.796-.45-1.916-.45c-.746 0-1.37.14-1.906.424a3.76 3.76 0 0 0-1.31 1.12 4.9 4.9 0 0 0-.75 1.581 7.17 7.17 0 0 0 0 3.696c.148.567.402 1.101.75 1.573a3.5 3.5 0 0 0 1.31 1.066q.803.39 1.906.389 1.77 0 2.739-.868.966-.867 1.328-2.457h-1.139q-.271 1.084-.977 1.734-.704.651-1.952.65-.812 0-1.392-.342a3.1 3.1 0 0 1-.957-.869 3.5 3.5 0 0 1-.551-1.182 5 5 0 0 1-.17-1.133 9 9 0 0 0-.015-.286 4.5 4.5 0 0 1 .015-.829c.047-.418.147-.83.296-1.223A3.7 3.7 0 0 1 5.54 9.05a2.9 2.9 0 0 1 .922-.742q.541-.28 1.246-.28c.47 0 .869.093 1.23.28q.541.281.922.742.379.461.587 1.057t.225 1.246H5.625l.004.957h6.182a7.3 7.3 0 0 0-.18-1.924 4.9 4.9 0 0 0-.715-1.68z"/></g>
      <text x="134" y="279" fill="#879191" font-family="ui-monospace, 'SF Mono', SFMono-Regular, Menlo, Consolas, monospace" font-size="8.5" text-anchor="middle">Express</text>
    </g>
  <g class="tile" style="animation-delay:0.44s">
      <rect class="pad" style="animation-delay:1.43s" x="172" y="214" width="52" height="52" rx="12" fill="#12161A" stroke="#E8EBE8" stroke-opacity=".10"/>
      <g transform="translate(185 227) scale(1.0833)" fill="#009688"><path d="M12 .0387C5.3729.0384.0003 5.3931 0 11.9988c-.001 6.6066 5.372 11.9628 12 11.9625 6.628.0003 12.001-5.3559 12-11.9625-.0003-6.6057-5.3729-11.9604-12-11.96m-.829 5.4153h7.55l-7.5805 5.3284h5.1828L5.279 18.5436q2.9466-6.5444 5.892-13.0896"/></g>
      <text x="198" y="279" fill="#879191" font-family="ui-monospace, 'SF Mono', SFMono-Regular, Menlo, Consolas, monospace" font-size="8.5" text-anchor="middle">FastAPI</text>
    </g>
  <g class="tile" style="animation-delay:0.47s">
      <rect class="pad" style="animation-delay:1.54s" x="236" y="214" width="52" height="52" rx="12" fill="#12161A" stroke="#E8EBE8" stroke-opacity=".10"/>
      <g transform="translate(249 227) scale(1.0833)" fill="#D71F00"><path d="M11.8 15.955a44.068 44.068 0 0 1-1.673-.691c-1.736-.757-1.981-.772-2.499-.143-.119.146-.25.236-.287.2-.111-.111.219-.644.617-.993.325-.285.433-.325.791-.285.228.025.985.29 1.682.586 1.573.669 2.034.811 2.635.811.731 0 1.106-.512.876-1.192-.057-.171-.04-.228.074-.228.213 0 .322.797.168 1.255a1.617 1.617 0 0 1-.424.614c-.251.211-.41.257-.879.254a3.853 3.853 0 0 1-1.082-.188h.001Zm.301-2.225c0-.048.179-.134.401-.188l.401-.099.086-1.446c.094-1.599.025-3.172-.148-3.383-.063-.074-.253-.165-.427-.205-.705-.156-.236-.264 1.133-.264 1.368 0 1.803.099 1.152.264-.561.14-.564.148-.564 2.43 0 1.266.046 2.22.111 2.342.092.171.228.207.752.207 1.081 0 1.453-.255 1.747-1.203.088-.284.315-.233.236.054-.037.134-.097.54-.134.91l-.068.669H14.44c-1.286 0-2.339-.04-2.339-.088Zm5.312-.068c0-.086.083-.171.219-.236.183-.086.302-.265.734-1.11.686-1.337 1.767-3.634 1.87-3.978.079-.262.097-.276.392-.31.171-.02.313-.031.316-.025l.527 1.152c.284.628.856 1.824 1.271 2.654.695 1.397.772 1.523 1.005 1.636.142.069.253.174.253.237 0 .099-.122.111-1.175.111-1.056 0-1.175-.012-1.175-.114 0-.068.091-.142.236-.191.134-.043.236-.122.236-.182 0-.057-.139-.432-.31-.834l-.31-.731h-2.35l-.225.495c-.421.928-.43 1.147-.037 1.252.196.054.25.097.227.185-.025.103-.127.117-.867.117-.794.006-.837 0-.837-.128Zm-15.652.025a10.933 10.933 0 0 1-.808-.196l-.549-.154.282-.518.281-.518-.227-.281c-.322-.399-.737-1.272-.74-1.554-.003-.657.851-1.61 1.898-2.122.72-.353 1.291-.362 2.009-.026l.54.253.157-.224c.085-.123.156-.285.156-.356 0-.071.071-.134.157-.134.085 0 .156.023.156.048 0 .063-.629 1.651-.669 1.691-.017.016-.187-.063-.381-.177-.546-.321-1.232-.535-1.764-.549-1.238-.031-1.667 1.178-.794 2.236l.308.373.839-.68c.942-.76 1.05-.777 1.784-.27.825.569.839 1.434.042 2.339-.705.805-1.431 1.027-2.677.819Zm5.984-.165c-.646-.301-1.229-.876-1.565-1.547-.538-1.076-.373-1.765.646-2.695.856-.782 1.556-1.087 2.498-1.087.68 0 .825.037 1.266.307 1.044.646 1.303 1.878.675 3.221-.737 1.577-2.294 2.37-3.52 1.801Zm-3.872-.702c.409-.322.381-.917-.063-1.389-.558-.592-.731-.566-1.713.253-.976.814-.982.783.185 1.155.771.251 1.255.242 1.591-.019Zm6.034-.046c.484-.239.817-1.343.68-2.259-.17-1.13-1.698-1.901-2.819-1.423-1.153.493-1.17 1.804-.037 2.985.791.828 1.471 1.044 2.176.697Zm11.359-1.414c.04-.071-.845-2.003-.928-2.023-.06-.017-.976 1.872-.976 2.014 0 .072 1.861.08 1.904.009Z"/></g>
      <text x="262" y="279" fill="#879191" font-family="ui-monospace, 'SF Mono', SFMono-Regular, Menlo, Consolas, monospace" font-size="8.5" text-anchor="middle">SQLAlchemy</text>
    </g>
  <g class="tile" style="animation-delay:0.5s">
      <rect class="pad" style="animation-delay:1.65s" x="300" y="214" width="52" height="52" rx="12" fill="#12161A" stroke="#E8EBE8" stroke-opacity=".10"/>
      <g transform="translate(313 227) scale(1.0833)" fill="#37814A"><path d="M2.303 0A2.298 2.298 0 0 0 0 2.303v19.394A2.298 2.298 0 0 0 2.303 24h19.394A2.298 2.298 0 0 0 24 21.697V2.303A2.298 2.298 0 0 0 21.697 0zm8.177 3.072c4.098 0 7.028 1.438 7.68 1.764l-1.194 2.55c-2.442-1.057-4.993-1.41-5.672-1.41-1.574 0-2.17.922-2.17 1.763v8.494c0 .869.596 1.791 2.17 1.791.679 0 3.23-.38 5.672-1.41l1.194 2.496c-.435.271-3.637 1.818-7.68 1.818-1.112 0-4.64-.244-4.64-4.64V7.713c0-4.397 3.528-4.64 4.64-4.64z"/></g>
      <text x="326" y="279" fill="#879191" font-family="ui-monospace, 'SF Mono', SFMono-Regular, Menlo, Consolas, monospace" font-size="8.5" text-anchor="middle">Celery</text>
    </g>
  <text x="624" y="198" fill="#A3ADAC" font-family="'Helvetica Neue', Helvetica, Arial, sans-serif" font-size="8.5" font-weight="700" letter-spacing="1.8">MOBILE &amp; DESKTOP</text>
  <g class="tile" style="animation-delay:0.53s">
      <rect class="pad" style="animation-delay:1.76s" x="624" y="214" width="52" height="52" rx="12" fill="#12161A" stroke="#E8EBE8" stroke-opacity=".10"/>
      <g transform="translate(637 227) scale(1.0833)" fill="#3DDC84"><path d="M18.4395 5.5586c-.675 1.1664-1.352 2.3318-2.0274 3.498-.0366-.0155-.0742-.0286-.1113-.043-1.8249-.6957-3.484-.8-4.42-.787-1.8551.0185-3.3544.4643-4.2597.8203-.084-.1494-1.7526-3.021-2.0215-3.4864a1.1451 1.1451 0 0 0-.1406-.1914c-.3312-.364-.9054-.4859-1.379-.203-.475.282-.7136.9361-.3886 1.5019 1.9466 3.3696-.0966-.2158 1.9473 3.3593.0172.031-.4946.2642-1.3926 1.0177C2.8987 12.176.452 14.772 0 18.9902h24c-.119-1.1108-.3686-2.099-.7461-3.0683-.7438-1.9118-1.8435-3.2928-2.7402-4.1836a12.1048 12.1048 0 0 0-2.1309-1.6875c.6594-1.122 1.312-2.2559 1.9649-3.3848.2077-.3615.1886-.7956-.0079-1.1191a1.1001 1.1001 0 0 0-.8515-.5332c-.5225-.0536-.9392.3128-1.0488.5449zm-.0391 8.461c.3944.5926.324 1.3306-.1563 1.6503-.4799.3197-1.188.0985-1.582-.4941-.3944-.5927-.324-1.3307.1563-1.6504.4727-.315 1.1812-.1086 1.582.4941zM7.207 13.5273c.4803.3197.5506 1.0577.1563 1.6504-.394.5926-1.1038.8138-1.584.4941-.48-.3197-.5503-1.0577-.1563-1.6504.4008-.6021 1.1087-.8106 1.584-.4941z"/></g>
      <text x="650" y="279" fill="#879191" font-family="ui-monospace, 'SF Mono', SFMono-Regular, Menlo, Consolas, monospace" font-size="8.5" text-anchor="middle">Android</text>
    </g>
  <g class="tile" style="animation-delay:0.56s">
      <rect class="pad" style="animation-delay:1.87s" x="688" y="214" width="52" height="52" rx="12" fill="#12161A" stroke="#E8EBE8" stroke-opacity=".10"/>
      <g transform="translate(701 227) scale(1.0833)" fill="#4285F4"><path d="M12.135.003a2.577 2.577 0 0 0-1.42.344L2.55 5.06a2.577 2.577 0 0 0-.953.967l3.957 2.17a1.765 1.765 0 0 1 .603-.588l4.951-2.86a1.761 1.761 0 0 1 1.76 0l4.951 2.86a1.753 1.753 0 0 1 .526.46l3.921-2.265a2.577 2.577 0 0 0-.816-.744L13.291.347a2.577 2.577 0 0 0-1.152-.34Zm-.145 4.912a1.36 1.36 0 0 0-.68.182L6.36 7.953a1.345 1.345 0 0 0-.454.435l1.92 1.055a1.05 1.05 0 0 1 .31-.275l3.34-1.928a1.054 1.054 0 0 1 1.051 0l3.336 1.928a1.066 1.066 0 0 1 .238.199l.018-.01-.002-.002 1.877-1.08a1.353 1.353 0 0 0-.373-.322l-4.95-2.86a1.357 1.357 0 0 0-.68-.178Zm10.432 1.149-3.92 2.26a1.757 1.757 0 0 1 .2.812v5.715c0 .627-.332 1.21-.88 1.528l-4.95 2.86a1.761 1.761 0 0 1-.64.214v4.524a2.577 2.577 0 0 0 1.059-.313l8.162-4.713a2.577 2.577 0 0 0 1.289-2.23V7.297a2.577 2.577 0 0 0-.318-1.228Zm-20.937.238a2.577 2.577 0 0 0-.227.99v9.43c0 .918.491 1.767 1.293 2.229l8.162 4.713a2.57 2.57 0 0 0 1.225.336v-4.531a1.761 1.761 0 0 1-.833-.235L6.156 16.38a1.765 1.765 0 0 1-.877-1.528V9.136a1.776 1.776 0 0 1 .131-.676Zm16.67 2.223-1.89 1.092a1.058 1.058 0 0 1 .124.46v3.856c0 .378-.2.72-.526.907l-3.336 1.93a1.04 1.04 0 0 1-.295.107v2.17c.152-.027.304-.078.44-.157l4.949-2.859a1.36 1.36 0 0 0 .68-1.18V9.136a1.36 1.36 0 0 0-.147-.607Zm-12.387.13a1.36 1.36 0 0 0-.088.481v5.715a1.36 1.36 0 0 0 .68 1.18l4.95 2.86c.194.112.412.166.627.177v-2.174a1.054 1.054 0 0 1-.46-.123L8.14 14.843a1.054 1.054 0 0 1-.532-.908v-3.853a.99.99 0 0 1 .077-.38l-.034-.013z"/></g>
      <text x="714" y="279" fill="#879191" font-family="ui-monospace, 'SF Mono', SFMono-Regular, Menlo, Consolas, monospace" font-size="8.5" text-anchor="middle">Compose</text>
    </g>
  <g class="tile" style="animation-delay:0.59s">
      <rect class="pad" style="animation-delay:1.98s" x="752" y="214" width="52" height="52" rx="12" fill="#12161A" stroke="#E8EBE8" stroke-opacity=".10"/>
      <g transform="translate(765 227) scale(1.0833)" fill="#24C8D8"><path d="M13.912 0a8.72 8.72 0 0 0-8.308 6.139c1.05-.515 2.18-.845 3.342-.976 2.415-3.363 7.4-3.412 9.88-.097 2.48 3.315 1.025 8.084-2.883 9.45a6.131 6.131 0 0 1-.3 2.762 8.72 8.72 0 0 0 3.01-1.225A8.72 8.72 0 0 0 13.913 0zm.082 6.451a2.284 2.284 0 1 0-.15 4.566 2.284 2.284 0 0 0 .15-4.566zm-5.629.27a8.72 8.72 0 0 0-3.031 1.235 8.72 8.72 0 1 0 13.06 9.9131 10.173 10.174 0 0 1-3.343.965 6.125 6.125 0 1 1-7.028-9.343 6.114 6.115 0 0 1 .342-2.772zm1.713 6.27a2.284 2.284 0 0 0-2.284 2.283 2.284 2.284 0 0 0 2.284 2.284 2.284 2.284 0 0 0 2.284-2.284 2.284 2.284 0 0 0-2.284-2.284z"/></g>
      <text x="778" y="279" fill="#879191" font-family="ui-monospace, 'SF Mono', SFMono-Regular, Menlo, Consolas, monospace" font-size="8.5" text-anchor="middle">Tauri v2</text>
    </g>
  <text x="44" y="308" fill="#A3ADAC" font-family="'Helvetica Neue', Helvetica, Arial, sans-serif" font-size="8.5" font-weight="700" letter-spacing="1.8">DATA &amp; INFRASTRUCTURE</text>
  <g class="tile" style="animation-delay:0.62s">
      <rect class="pad" style="animation-delay:2.09s" x="44" y="324" width="52" height="52" rx="12" fill="#12161A" stroke="#E8EBE8" stroke-opacity=".10"/>
      <g transform="translate(57 337) scale(1.0833)" fill="#4169E1"><path d="M23.5594 14.7228a.5269.5269 0 0 0-.0563-.1191c-.139-.2632-.4768-.3418-1.0074-.2321-1.6533.3411-2.2935.1312-2.5256-.0191 1.342-2.0482 2.445-4.522 3.0411-6.8297.2714-1.0507.7982-3.5237.1222-4.7316a1.5641 1.5641 0 0 0-.1509-.235C21.6931.9086 19.8007.0248 17.5099.0005c-1.4947-.0158-2.7705.3461-3.1161.4794a9.449 9.449 0 0 0-.5159-.0816 8.044 8.044 0 0 0-1.3114-.1278c-1.1822-.0184-2.2038.2642-3.0498.8406-.8573-.3211-4.7888-1.645-7.2219.0788C.9359 2.1526.3086 3.8733.4302 6.3043c.0409.818.5069 3.334 1.2423 5.7436.4598 1.5065.9387 2.7019 1.4334 3.582.553.9942 1.1259 1.5933 1.7143 1.7895.4474.1491 1.1327.1441 1.8581-.7279.8012-.9635 1.5903-1.8258 1.9446-2.2069.4351.2355.9064.3625 1.39.3772a.0569.0569 0 0 0 .0004.0041 11.0312 11.0312 0 0 0-.2472.3054c-.3389.4302-.4094.5197-1.5002.7443-.3102.064-1.1344.2339-1.1464.8115-.0025.1224.0329.2309.0919.3268.2269.4231.9216.6097 1.015.6331 1.3345.3335 2.5044.092 3.3714-.6787-.017 2.231.0775 4.4174.3454 5.0874.2212.5529.7618 1.9045 2.4692 1.9043.2505 0 .5263-.0291.8296-.0941 1.7819-.3821 2.5557-1.1696 2.855-2.9059.1503-.8707.4016-2.8753.5388-4.1012.0169-.0703.0357-.1207.057-.1362.0007-.0005.0697-.0471.4272.0307a.3673.3673 0 0 0 .0443.0068l.2539.0223.0149.001c.8468.0384 1.9114-.1426 2.5312-.4308.6438-.2988 1.8057-1.0323 1.5951-1.6698zM2.371 11.8765c-.7435-2.4358-1.1779-4.8851-1.2123-5.5719-.1086-2.1714.4171-3.6829 1.5623-4.4927 1.8367-1.2986 4.8398-.5408 6.108-.13-.0032.0032-.0066.0061-.0098.0094-2.0238 2.044-1.9758 5.536-1.9708 5.7495-.0002.0823.0066.1989.0162.3593.0348.5873.0996 1.6804-.0735 2.9184-.1609 1.1504.1937 2.2764.9728 3.0892.0806.0841.1648.1631.2518.2374-.3468.3714-1.1004 1.1926-1.9025 2.1576-.5677.6825-.9597.5517-1.0886.5087-.3919-.1307-.813-.5871-1.2381-1.3223-.4796-.839-.9635-2.0317-1.4155-3.5126zm6.0072 5.0871c-.1711-.0428-.3271-.1132-.4322-.1772.0889-.0394.2374-.0902.4833-.1409 1.2833-.2641 1.4815-.4506 1.9143-1.0002.0992-.126.2116-.2687.3673-.4426a.3549.3549 0 0 0 .0737-.1298c.1708-.1513.2724-.1099.4369-.0417.156.0646.3078.26.3695.4752.0291.1016.0619.2945-.0452.4444-.9043 1.2658-2.2216 1.2494-3.1676 1.0128zm2.094-3.988-.0525.141c-.133.3566-.2567.6881-.3334 1.003-.6674-.0021-1.3168-.2872-1.8105-.8024-.6279-.6551-.9131-1.5664-.7825-2.5004.1828-1.3079.1153-2.4468.079-3.0586-.005-.0857-.0095-.1607-.0122-.2199.2957-.2621 1.6659-.9962 2.6429-.7724.4459.1022.7176.4057.8305.928.5846 2.7038.0774 3.8307-.3302 4.7363-.084.1866-.1633.3629-.2311.5454zm7.3637 4.5725c-.0169.1768-.0358.376-.0618.5959l-.146.4383a.3547.3547 0 0 0-.0182.1077c-.0059.4747-.054.6489-.115.8693-.0634.2292-.1353.4891-.1794 1.0575-.11 1.4143-.8782 2.2267-2.4172 2.5565-1.5155.3251-1.7843-.4968-2.0212-1.2217a6.5824 6.5824 0 0 0-.0769-.2266c-.2154-.5858-.1911-1.4119-.1574-2.5551.0165-.5612-.0249-1.9013-.3302-2.6462.0044-.2932.0106-.5909.019-.8918a.3529.3529 0 0 0-.0153-.1126 1.4927 1.4927 0 0 0-.0439-.208c-.1226-.4283-.4213-.7866-.7797-.9351-.1424-.059-.4038-.1672-.7178-.0869.067-.276.1831-.5875.309-.9249l.0529-.142c.0595-.16.134-.3257.213-.5012.4265-.9476 1.0106-2.2453.3766-5.1772-.2374-1.0981-1.0304-1.6343-2.2324-1.5098-.7207.0746-1.3799.3654-1.7088.5321a5.6716 5.6716 0 0 0-.1958.1041c.0918-1.1064.4386-3.1741 1.7357-4.4823a4.0306 4.0306 0 0 1 .3033-.276.3532.3532 0 0 0 .1447-.0644c.7524-.5706 1.6945-.8506 2.802-.8325.4091.0067.8017.0339 1.1742.081 1.939.3544 3.2439 1.4468 4.0359 2.3827.8143.9623 1.2552 1.9315 1.4312 2.4543-1.3232-.1346-2.2234.1268-2.6797.779-.9926 1.4189.543 4.1729 1.2811 5.4964.1353.2426.2522.4522.2889.5413.2403.5825.5515.9713.7787 1.2552.0696.087.1372.1714.1885.245-.4008.1155-1.1208.3825-1.0552 1.717-.0123.1563-.0423.4469-.0834.8148-.0461.2077-.0702.4603-.0994.7662zm.8905-1.6211c-.0405-.8316.2691-.9185.5967-1.0105a2.8566 2.8566 0 0 0 .135-.0406 1.202 1.202 0 0 0 .1342.103c.5703.3765 1.5823.4213 3.0068.1344-.2016.1769-.5189.3994-.9533.6011-.4098.1903-1.0957.333-1.7473.3636-.7197.0336-1.0859-.0807-1.1721-.151zm.5695-9.2712c-.0059.3508-.0542.6692-.1054 1.0017-.055.3576-.112.7274-.1264 1.1762-.0142.4368.0404.8909.0932 1.3301.1066.887.216 1.8003-.2075 2.7014a3.5272 3.5272 0 0 1-.1876-.3856c-.0527-.1276-.1669-.3326-.3251-.6162-.6156-1.1041-2.0574-3.6896-1.3193-4.7446.3795-.5427 1.3408-.5661 2.1781-.463zm.2284 7.0137a12.3762 12.3762 0 0 0-.0853-.1074l-.0355-.0444c.7262-1.1995.5842-2.3862.4578-3.4385-.0519-.4318-.1009-.8396-.0885-1.2226.0129-.4061.0666-.7543.1185-1.0911.0639-.415.1288-.8443.1109-1.3505.0134-.0531.0188-.1158.0118-.1902-.0457-.4855-.5999-1.938-1.7294-3.253-.6076-.7073-1.4896-1.4972-2.6889-2.0395.5251-.1066 1.2328-.2035 2.0244-.1859 2.0515.0456 3.6746.8135 4.8242 2.2824a.908.908 0 0 1 .0667.1002c.7231 1.3556-.2762 6.2751-2.9867 10.5405zm-8.8166-6.1162c-.025.1794-.3089.4225-.6211.4225a.5821.5821 0 0 1-.0809-.0056c-.1873-.026-.3765-.144-.5059-.3156-.0458-.0605-.1203-.178-.1055-.2844.0055-.0401.0261-.0985.0925-.1488.1182-.0894.3518-.1226.6096-.0867.3163.0441.6426.1938.6113.4186zm7.9305-.4114c.0111.0792-.049.201-.1531.3102-.0683.0717-.212.1961-.4079.2232a.5456.5456 0 0 1-.075.0052c-.2935 0-.5414-.2344-.5607-.3717-.024-.1765.2641-.3106.5611-.352.297-.0414.6111.0088.6356.1851z"/></g>
      <text x="70" y="389" fill="#879191" font-family="ui-monospace, 'SF Mono', SFMono-Regular, Menlo, Consolas, monospace" font-size="8.5" text-anchor="middle">PostgreSQL</text>
    </g>
  <g class="tile" style="animation-delay:0.65s">
      <rect class="pad" style="animation-delay:2.2s" x="108" y="324" width="52" height="52" rx="12" fill="#12161A" stroke="#E8EBE8" stroke-opacity=".10"/>
      <g transform="translate(121 337) scale(1.0833)" fill="#47A248"><path d="M17.193 9.555c-1.264-5.58-4.252-7.414-4.573-8.115-.28-.394-.53-.954-.735-1.44-.036.495-.055.685-.523 1.184-.723.566-4.438 3.682-4.74 10.02-.282 5.912 4.27 9.435 4.888 9.884l.07.05A73.49 73.49 0 0111.91 24h.481c.114-1.032.284-2.056.51-3.07.417-.296.604-.463.85-.693a11.342 11.342 0 003.639-8.464c.01-.814-.103-1.662-.197-2.218zm-5.336 8.195s0-8.291.275-8.29c.213 0 .49 10.695.49 10.695-.381-.045-.765-1.76-.765-2.405z"/></g>
      <text x="134" y="389" fill="#879191" font-family="ui-monospace, 'SF Mono', SFMono-Regular, Menlo, Consolas, monospace" font-size="8.5" text-anchor="middle">MongoDB</text>
    </g>
  <g class="tile" style="animation-delay:0.68s">
      <rect class="pad" style="animation-delay:2.31s" x="172" y="324" width="52" height="52" rx="12" fill="#12161A" stroke="#E8EBE8" stroke-opacity=".10"/>
      <g transform="translate(185 337) scale(1.0833)" fill="#FF4438"><path d="M22.71 13.145c-1.66 2.092-3.452 4.483-7.038 4.483-3.203 0-4.397-2.825-4.48-5.12.701 1.484 2.073 2.685 4.214 2.63 4.117-.133 6.94-3.852 6.94-7.239 0-4.05-3.022-6.972-8.268-6.972-3.752 0-8.4 1.428-11.455 3.685C2.59 6.937 3.885 9.958 4.35 9.626c2.648-1.904 4.748-3.13 6.784-3.744C8.12 9.244.886 17.05 0 18.425c.1 1.261 1.66 4.648 2.424 4.648.232 0 .431-.133.664-.365a100.49 100.49 0 0 0 5.54-6.765c.222 3.104 1.748 6.898 6.014 6.898 3.819 0 7.604-2.756 9.33-8.965.2-.764-.73-1.361-1.261-.73zm-4.349-5.013c0 1.959-1.926 2.922-3.685 2.922-.941 0-1.664-.247-2.235-.568 1.051-1.592 2.092-3.225 3.21-4.973 1.972.334 2.71 1.43 2.71 2.619z"/></g>
      <text x="198" y="389" fill="#879191" font-family="ui-monospace, 'SF Mono', SFMono-Regular, Menlo, Consolas, monospace" font-size="8.5" text-anchor="middle">Redis</text>
    </g>
  <g class="tile" style="animation-delay:0.71s">
      <rect class="pad" style="animation-delay:2.42s" x="236" y="324" width="52" height="52" rx="12" fill="#12161A" stroke="#E8EBE8" stroke-opacity=".10"/>
      <g transform="translate(249 337) scale(1.0833)" fill="#DD2C00"><path d="M19.455 8.369c-.538-.748-1.778-2.285-3.681-4.569-.826-.991-1.535-1.832-1.884-2.245a146 146 0 0 0-.488-.576l-.207-.245-.113-.133-.022-.032-.01-.005L12.57 0l-.609.488c-1.555 1.246-2.828 2.851-3.681 4.64-.523 1.064-.864 2.105-1.043 3.176-.047.241-.088.489-.121.738-.209-.017-.421-.028-.632-.033-.018-.001-.035-.002-.059-.003a7.46 7.46 0 0 0-2.28.274l-.317.089-.163.286c-.765 1.342-1.198 2.869-1.252 4.416-.07 2.01.477 3.954 1.583 5.625 1.082 1.633 2.61 2.882 4.42 3.611l.236.095.071.025.003-.001a9.59 9.59 0 0 0 2.941.568q.171.006.342.006c1.273 0 2.513-.249 3.69-.742l.008.004.313-.145a9.63 9.63 0 0 0 3.927-3.335c1.01-1.49 1.577-3.234 1.641-5.042.075-2.161-.643-4.304-2.133-6.371m-7.083 6.695c.328 1.244.264 2.44-.191 3.558-1.135-1.12-1.967-2.352-2.475-3.665-.543-1.404-.87-2.74-.974-3.975.48.157.922.366 1.315.622 1.132.737 1.914 1.902 2.325 3.461zm.207 6.022c.482.368.99.712 1.513 1.028-.771.21-1.565.302-2.369.273a8 8 0 0 1-.373-.022c.458-.394.869-.823 1.228-1.279zm1.347-6.431c-.516-1.957-1.527-3.437-3.002-4.398-.647-.421-1.385-.741-2.194-.95.011-.134.026-.268.043-.4.014-.113.03-.216.046-.313.133-.689.332-1.37.589-2.025.099-.25.206-.499.321-.74l.004-.008c.177-.358.376-.719.61-1.105l.092-.152-.003-.001c.544-.851 1.197-1.627 1.942-2.311l.288.341c.672.796 1.304 1.548 1.878 2.237 1.291 1.549 2.966 3.583 3.612 4.48 1.277 1.771 1.893 3.579 1.83 5.375-.049 1.395-.461 2.755-1.195 3.933-.694 1.116-1.661 2.05-2.8 2.708-.636-.318-1.559-.839-2.539-1.599.79-1.575.952-3.28.479-5.072zm-2.575 5.397c-.725.939-1.587 1.55-2.09 1.856-.081-.029-.163-.06-.243-.093l-.065-.026c-1.49-.616-2.747-1.656-3.635-3.01-.907-1.384-1.356-2.993-1.298-4.653.041-1.19.338-2.327.882-3.379.316-.07.638-.114.96-.131l.084-.002c.162-.003.324-.003.478 0 .227.011.454.035.677.07.073 1.513.445 3.145 1.105 4.852.637 1.644 1.694 3.162 3.144 4.515z"/></g>
      <text x="262" y="389" fill="#879191" font-family="ui-monospace, 'SF Mono', SFMono-Regular, Menlo, Consolas, monospace" font-size="8.5" text-anchor="middle">Firebase</text>
    </g>
  <g class="tile" style="animation-delay:0.74s">
      <rect class="pad" style="animation-delay:2.53s" x="300" y="324" width="52" height="52" rx="12" fill="#12161A" stroke="#E8EBE8" stroke-opacity=".10"/>
      <g transform="translate(313 337) scale(1.0833)" fill="#2496ED"><path d="M13.983 11.078h2.119a.186.186 0 00.186-.185V9.006a.186.186 0 00-.186-.186h-2.119a.185.185 0 00-.185.185v1.888c0 .102.083.185.185.185m-2.954-5.43h2.118a.186.186 0 00.186-.186V3.574a.186.186 0 00-.186-.185h-2.118a.185.185 0 00-.185.185v1.888c0 .102.082.185.185.185m0 2.716h2.118a.187.187 0 00.186-.186V6.29a.186.186 0 00-.186-.185h-2.118a.185.185 0 00-.185.185v1.887c0 .102.082.185.185.186m-2.93 0h2.12a.186.186 0 00.184-.186V6.29a.185.185 0 00-.185-.185H8.1a.185.185 0 00-.185.185v1.887c0 .102.083.185.185.186m-2.964 0h2.119a.186.186 0 00.185-.186V6.29a.185.185 0 00-.185-.185H5.136a.186.186 0 00-.186.185v1.887c0 .102.084.185.186.186m5.893 2.715h2.118a.186.186 0 00.186-.185V9.006a.186.186 0 00-.186-.186h-2.118a.185.185 0 00-.185.185v1.888c0 .102.082.185.185.185m-2.93 0h2.12a.185.185 0 00.184-.185V9.006a.185.185 0 00-.184-.186h-2.12a.185.185 0 00-.184.185v1.888c0 .102.083.185.185.185m-2.964 0h2.119a.185.185 0 00.185-.185V9.006a.185.185 0 00-.184-.186h-2.12a.186.186 0 00-.186.186v1.887c0 .102.084.185.186.185m-2.92 0h2.12a.185.185 0 00.184-.185V9.006a.185.185 0 00-.184-.186h-2.12a.185.185 0 00-.184.185v1.888c0 .102.082.185.185.185M23.763 9.89c-.065-.051-.672-.51-1.954-.51-.338.001-.676.03-1.01.087-.248-1.7-1.653-2.53-1.716-2.566l-.344-.199-.226.327c-.284.438-.49.922-.612 1.43-.23.97-.09 1.882.403 2.661-.595.332-1.55.413-1.744.42H.751a.751.751 0 00-.75.748 11.376 11.376 0 00.692 4.062c.545 1.428 1.355 2.48 2.41 3.124 1.18.723 3.1 1.137 5.275 1.137.983.003 1.963-.086 2.93-.266a12.248 12.248 0 003.823-1.389c.98-.567 1.86-1.288 2.61-2.136 1.252-1.418 1.998-2.997 2.553-4.4h.221c1.372 0 2.215-.549 2.68-1.009.309-.293.55-.65.707-1.046l.098-.288Z"/></g>
      <text x="326" y="389" fill="#879191" font-family="ui-monospace, 'SF Mono', SFMono-Regular, Menlo, Consolas, monospace" font-size="8.5" text-anchor="middle">Docker</text>
    </g>
  <g class="tile" style="animation-delay:0.77s">
      <rect class="pad" style="animation-delay:2.64s" x="364" y="324" width="52" height="52" rx="12" fill="#12161A" stroke="#E8EBE8" stroke-opacity=".10"/>
      <g transform="translate(377 337) scale(1.0833)" fill="#2088FF"><path d="M10.984 13.836a.5.5 0 0 1-.353-.146l-.745-.743a.5.5 0 1 1 .706-.708l.392.391 1.181-1.18a.5.5 0 0 1 .708.707l-1.535 1.533a.504.504 0 0 1-.354.146zm9.353-.147l1.534-1.532a.5.5 0 0 0-.707-.707l-1.181 1.18-.392-.391a.5.5 0 1 0-.706.708l.746.743a.497.497 0 0 0 .706-.001zM4.527 7.452l2.557-1.585A1 1 0 0 0 7.09 4.17L4.533 2.56A1 1 0 0 0 3 3.406v3.196a1.001 1.001 0 0 0 1.527.85zm2.03-2.436L4 6.602V3.406l2.557 1.61zM24 12.5c0 1.93-1.57 3.5-3.5 3.5a3.503 3.503 0 0 1-3.46-3h-2.08a3.503 3.503 0 0 1-3.46 3 3.502 3.502 0 0 1-3.46-3h-.558c-.972 0-1.85-.399-2.482-1.042V17c0 1.654 1.346 3 3 3h.04c.244-1.693 1.7-3 3.46-3 1.93 0 3.5 1.57 3.5 3.5S13.43 24 11.5 24a3.502 3.502 0 0 1-3.46-3H8c-2.206 0-4-1.794-4-4V9.899A5.008 5.008 0 0 1 0 5c0-2.757 2.243-5 5-5s5 2.243 5 5a5.005 5.005 0 0 1-4.952 4.998A2.482 2.482 0 0 0 7.482 12h.558c.244-1.693 1.7-3 3.46-3a3.502 3.502 0 0 1 3.46 3h2.08a3.503 3.503 0 0 1 3.46-3c1.93 0 3.5 1.57 3.5 3.5zm-15 8c0 1.378 1.122 2.5 2.5 2.5s2.5-1.122 2.5-2.5-1.122-2.5-2.5-2.5S9 19.122 9 20.5zM5 9c2.206 0 4-1.794 4-4S7.206 1 5 1 1 2.794 1 5s1.794 4 4 4zm9 3.5c0-1.378-1.122-2.5-2.5-2.5S9 11.122 9 12.5s1.122 2.5 2.5 2.5 2.5-1.122 2.5-2.5zm9 0c0-1.378-1.122-2.5-2.5-2.5S18 11.122 18 12.5s1.122 2.5 2.5 2.5 2.5-1.122 2.5-2.5zm-13 8a.5.5 0 1 0 1 0 .5.5 0 0 0-1 0zm2 0a.5.5 0 1 0 1 0 .5.5 0 0 0-1 0zm12 0c0 1.93-1.57 3.5-3.5 3.5a3.503 3.503 0 0 1-3.46-3.002c-.007.001-.013.005-.021.005l-.506.017h-.017a.5.5 0 0 1-.016-.999l.506-.017c.018-.002.035.006.052.007A3.503 3.503 0 0 1 20.5 17c1.93 0 3.5 1.57 3.5 3.5zm-1 0c0-1.378-1.122-2.5-2.5-2.5S18 19.122 18 20.5s1.122 2.5 2.5 2.5 2.5-1.122 2.5-2.5z"/></g>
      <text x="390" y="389" fill="#879191" font-family="ui-monospace, 'SF Mono', SFMono-Regular, Menlo, Consolas, monospace" font-size="8.5" text-anchor="middle">Actions</text>
    </g>
  <g class="tile" style="animation-delay:0.8s">
      <rect class="pad" style="animation-delay:2.75s" x="428" y="324" width="52" height="52" rx="12" fill="#12161A" stroke="#E8EBE8" stroke-opacity=".10"/>
      <g transform="translate(441 337) scale(1.0833)" fill="#E8EBE8"><path d="m12 1.608 12 20.784H0Z"/></g>
      <text x="454" y="389" fill="#879191" font-family="ui-monospace, 'SF Mono', SFMono-Regular, Menlo, Consolas, monospace" font-size="8.5" text-anchor="middle">Vercel</text>
    </g>
  <text x="624" y="308" fill="#A3ADAC" font-family="'Helvetica Neue', Helvetica, Arial, sans-serif" font-size="8.5" font-weight="700" letter-spacing="1.8">RUNTIME &amp; TESTING</text>
  <g class="tile" style="animation-delay:0.83s">
      <rect class="pad" style="animation-delay:2.86s" x="624" y="324" width="52" height="52" rx="12" fill="#12161A" stroke="#E8EBE8" stroke-opacity=".10"/>
      <g transform="translate(637 337) scale(1.0833)" fill="#005CED"><path d="M23.0325 11.2963c-.0503 0-.1006 0-.1508.0126l-4.021-7.4387c.0754-.1383.1131-.289.1131-.4524 0-.5403-.4398-.9675-.9675-.9675-.2765 0-.5278.113-.7037.3015L9.286 1.156C9.2357.6785 8.821.3016 8.3184.3016c-.5277 0-.9675.4398-.9675.9675 0 .1634.0377.3141.113.4524l-6.245 8.9591c-.0753-.0251-.1633-.0377-.2513-.0377-.5403 0-.9675.4398-.9675.9676 0 .5403.4398.9675.9675.9675h.0377l3.3676 8.3309c-.0503.1257-.088.2639-.088.402 0 .5404.4398.9676.9676.9676.2764 0 .5277-.113.7036-.3015l10.1152.9926c.1005.4273.49.7288.9424.7288.5403 0 .9676-.4398.9676-.9675 0-.2388-.088-.465-.2262-.6283l5.1141-8.8712c.0503.0126.1005.0126.1634.0126.5403 0 .9675-.4398.9675-.9676 0-.5403-.4272-.98-.9675-.98zM17.2272 4.021c.1131.1508.2765.264.4524.3267l-1.533 11.5728c-.1005.0252-.1885.0503-.2764.1005L7.4513 8.708c.0251-.0754.0377-.1634.0377-.2514 0-.0628-.0126-.1256-.0126-.1884zm4.8754 8.5068l-5.177 3.556a1.105 1.105 0 0 0-.1256-.0753L18.3455 4.335h.0126l3.9456 7.288c-.1508.1759-.2388.3895-.2388.6408 0 .1005.0126.1885.0377.2638zM6.3832 7.5016c-.4649.0754-.8293.4775-.8293.955v.0628l-3.4555 2.0481 5.378-7.7026zm.3519 1.91c.1256-.0252.2513-.088.3518-.1634l8.356 7.2628c-.0377.113-.0628.2262-.0628.3518v.0503l-9.311 3.845c-.1382-.201-.3518-.3518-.6031-.402zm8.8963 8.1172c.1257.1382.3016.2513.5026.289l.465 4.046c-.201.1006-.3519.264-.4524.4524l-9.8136-.955zm1.1435.2136c.3267-.1633.5403-.49.5403-.867 0-.088-.0126-.1634-.0377-.2513l4.7372-3.2545-4.8 8.331zm.2513-14.3497l-9.889 4.31-.1131-.0755 1.2565-5.3906h.0377c.3393 0 .6409-.1759.8168-.4397l7.891 1.5706zM1.935 11.6105c0-.0629-.0126-.1257-.0126-.1885l3.9079-2.2995c.0754.0754.1633.1508.2638.201L4.8252 20.243l-3.2043-7.9036c.1885-.176.3142-.4398.3142-.7288Z"/></g>
      <text x="650" y="389" fill="#879191" font-family="ui-monospace, 'SF Mono', SFMono-Regular, Menlo, Consolas, monospace" font-size="8.5" text-anchor="middle">ONNX Runtime</text>
    </g>
  <g class="tile" style="animation-delay:0.86s">
      <rect class="pad" style="animation-delay:2.97s" x="688" y="324" width="52" height="52" rx="12" fill="#12161A" stroke="#E8EBE8" stroke-opacity=".10"/>
      <g transform="translate(701 337) scale(1.0833)" fill="#00FF74"><path d="M11.545 23.3a.613.613 0 0 1-.895.197L.252 15.936A.61.61 0 0 1 0 15.439V6.325c0-.502.569-.792.975-.497l6.358 4.624c.594.433 1.432.25 1.793-.39L14.393.7a.62.62 0 0 1 .535-.314h8.455a.613.613 0 0 1 .537.916z"/></g>
      <text x="714" y="389" fill="#879191" font-family="ui-monospace, 'SF Mono', SFMono-Regular, Menlo, Consolas, monospace" font-size="8.5" text-anchor="middle">Vitest</text>
    </g>
  <g class="tile" style="animation-delay:0.89s">
      <rect class="pad" style="animation-delay:3.08s" x="752" y="324" width="52" height="52" rx="12" fill="#12161A" stroke="#E8EBE8" stroke-opacity=".10"/>
      <g transform="translate(765 337) scale(1.0833)" fill="#0A9EDC"><path d="M2.6152 0v.8867h3.8399V0zm5.0215 0v.8867h3.8418V0zm4.957 0v.8867h3.8418V0zm4.9356 0v.8867h3.8418V0zM2.4473 1.8945a.935.935 0 0 0-.9356.9356c0 .517.4185.9375.9356.9375h19.1054c.5171 0 .9356-.4204.9356-.9375a.935.935 0 0 0-.9356-.9356zm.168 2.8477V24H6.455V4.7422zm5.0214 0V20.543h3.8418V4.7422zm4.957 0V15.291h3.8497V4.7422zm4.9356 0v6.4941h3.8418V4.7422z"/></g>
      <text x="778" y="389" fill="#879191" font-family="ui-monospace, 'SF Mono', SFMono-Regular, Menlo, Consolas, monospace" font-size="8.5" text-anchor="middle">pytest</text>
    </g>
  <g class="tile" style="animation-delay:0.92s">
      <rect class="pad" style="animation-delay:3.19s" x="816" y="324" width="52" height="52" rx="12" fill="#12161A" stroke="#E8EBE8" stroke-opacity=".10"/>
      <g transform="translate(829 337) scale(1.0833)" fill="#F03C2E"><path d="M13.09 23.549a1.54 1.54 0 0 1-2.18 0L.451 13.089a1.54 1.54 0 0 1 0-2.179l7.191-7.19 2.733 2.733a1.85 1.85 0 0 0 .964 2.326v6.66a1.849 1.849 0 1 0 1.54 0V8.957l2.508 2.508a1.85 1.85 0 1 0 1.09-1.09l-2.634-2.634a1.85 1.85 0 0 0-2.378-2.377L8.73 2.63 10.91.451a1.54 1.54 0 0 1 2.179 0l10.459 10.46a1.54 1.54 0 0 1 0 2.179z"/></g>
      <text x="842" y="389" fill="#879191" font-family="ui-monospace, 'SF Mono', SFMono-Regular, Menlo, Consolas, monospace" font-size="8.5" text-anchor="middle">Git</text>
    </g>
</svg>
